<svg width="13" height="12" viewBox="0 0 13 12" fill="none" xmlns="http://www.w3.org/2000/svg">
<path d="M4.72014 3.41016C4.41634 3.41016 4.18506 3.41916 4.13806 3.42823V5.56409C4.18506 5.57309 4.31539 5.58206 4.6426 5.58206C5.25786 5.58206 5.84885 5.40717 5.84885 4.50391C5.84885 3.78129 5.45234 3.41016 4.72014 3.41016Z" fill="black"/>
<path d="M0.566162 0V12H12.5979V0H0.566162ZM4.61665 6.44531C4.39856 6.44531 4.18509 6.44531 4.13809 6.44531V8.49199C4.13809 8.54625 4.11816 8.55469 4.07915 8.55469H3.25347C3.21458 8.55469 3.19811 8.54627 3.19811 8.50109V2.60714C3.19811 2.56188 3.20636 2.54496 3.24525 2.54496C3.54122 2.53587 4.12333 2.52795 4.71533 2.52795C6.242 2.52795 6.82565 3.41435 6.83346 4.46217C6.83343 5.89823 5.76162 6.44531 4.61665 6.44531ZM8.67429 8.68081C8.26864 8.68081 7.76312 8.64225 7.4416 8.40738C7.41093 8.38931 7.40452 8.36227 7.40452 8.31701V7.48605C7.40452 7.44089 7.42628 7.42284 7.44921 7.44089C7.84718 7.73897 8.28392 7.82367 8.68186 7.82367C9.03397 7.82367 9.1553 7.5896 9.1553 7.39092C9.1553 7.1561 9.06941 7.02052 8.5183 6.75865C7.72999 6.37927 7.40078 6.05325 7.40078 5.39391C7.40078 4.66223 7.94926 4.0579 8.85237 4.0579C9.31921 4.0579 9.64325 4.07039 9.85758 4.21481C9.89587 4.25098 9.89542 4.27805 9.89542 4.3323V5.07295C9.89542 5.12709 9.87288 5.15426 9.8347 5.12709C9.55912 4.94648 9.17605 4.88897 8.77809 4.88897C8.40299 4.88897 8.30422 5.12292 8.30422 5.29453C8.30422 5.51137 8.40421 5.62875 8.97828 5.89976C9.76662 6.27914 10.1041 6.61334 10.1041 7.26361C10.1042 8.16687 9.51623 8.68081 8.67429 8.68081Z" fill="black"/>
</svg>
