<svg width="13" height="12" viewBox="0 0 13 12" fill="none" xmlns="http://www.w3.org/2000/svg">
<path d="M5.6292 4.99942C5.6292 4.54022 5.31588 4.54022 5.31588 4.54022H5.14989H4.02697H4.02649V5.5258H5.23592C5.44504 5.5258 5.6292 5.45934 5.6292 4.99942Z" fill="black"/>
<path d="M8.6161 5.52582C7.93227 5.52582 7.83704 6.20639 7.83704 6.20639H9.29169C9.29169 6.20639 9.30066 5.52582 8.6161 5.52582Z" fill="black"/>
<path d="M5.31589 6.20639H4.02722V7.38677H5.1688C5.18818 7.38677 5.21678 7.38773 5.25094 7.38677C5.43438 7.38266 5.78308 7.32997 5.78308 6.81301C5.78308 6.20059 5.31589 6.20639 5.31589 6.20639Z" fill="black"/>
<path d="M6.58204 0C3.2649 0 0.566162 2.69161 0.566162 6C0.566162 9.30839 3.2649 12 6.58204 12C9.89917 12 12.5979 9.30839 12.5979 6C12.5979 2.69161 9.89917 0 6.58204 0ZM7.64631 4.01555H9.47342V4.55958H7.64631V4.01555ZM6.72282 6.86836C6.72282 8.21622 5.31591 8.172 5.31591 8.172H4.02724H3.98944H3.01191V3.75526H3.98944H4.02724H5.31591C6.01646 3.75526 6.56919 4.14122 6.56919 4.93152C6.56919 5.72158 5.8936 5.77185 5.8936 5.77185C6.78413 5.77185 6.72282 6.86836 6.72282 6.86836ZM10.1405 6.79586H7.84574C7.84574 7.61661 8.62505 7.56465 8.62505 7.56465C9.36098 7.56465 9.33505 7.08974 9.33505 7.08974H10.1148C10.1148 8.3506 8.59936 8.26408 8.59936 8.26408C6.78122 8.26408 6.89802 6.57593 6.89802 6.57593C6.89802 6.57593 6.89657 4.87884 8.59936 4.87884C10.3918 4.87884 10.1403 6.79586 10.1405 6.79586Z" fill="black"/>
</svg>
