<svg width="13" height="12" viewBox="0 0 13 12" fill="none" xmlns="http://www.w3.org/2000/svg">
<path d="M6.58326 0C9.90186 0 12.5955 2.6816 12.5979 5.99389C12.6004 9.32328 9.91166 12.0024 6.57346 12C3.24996 11.9976 0.563713 9.31595 0.566164 6.00367C0.566164 2.68405 3.25486 0.00244449 6.58326 0ZM3.41663 10.0273C3.44114 10.0542 3.44849 10.064 3.45829 10.0713C3.473 10.0835 3.49015 10.0957 3.50731 10.108C4.38966 10.7582 5.37984 11.1004 6.47787 11.1249C7.16904 11.142 7.83325 11.0149 8.4754 10.768C8.55873 10.7362 8.59059 10.6946 8.56854 10.6042C8.53422 10.4649 8.51461 10.3255 8.4852 10.1862C8.29158 9.26217 8.03423 8.35526 7.72296 7.46303C7.64943 7.2528 7.571 7.04502 7.49011 6.82257C5.76464 7.44591 4.35289 8.4286 3.41663 10.0273ZM1.46566 5.813C1.27449 6.78346 2.08576 8.98594 2.76222 9.39662C3.83819 7.77348 5.23524 6.56345 7.14453 5.96944C7.00973 5.69322 6.88228 5.42677 6.74748 5.16521C6.73522 5.13832 6.65679 5.12854 6.61758 5.13832C6.36022 5.19943 6.10533 5.27521 5.84797 5.33632C4.72544 5.60277 3.58819 5.76411 2.43624 5.81055C2.11272 5.82522 1.78919 5.813 1.46566 5.813ZM1.57596 4.92809C2.15438 5.06743 5.84062 4.57364 6.28425 4.29497C5.70827 3.28539 5.07837 2.31004 4.39456 1.37136C2.8333 2.05826 1.76223 3.65696 1.57596 4.92809ZM9.96803 2.14871C9.20824 1.49114 8.33324 1.08046 7.3357 0.93135C6.6813 0.836015 6.03425 0.862905 5.37249 1.01935C6.08817 1.98737 6.72052 2.97739 7.28914 4.00163C8.30383 3.66429 9.50235 2.86739 9.96803 2.14871ZM11.7205 5.93522C11.696 4.73986 11.3087 3.68629 10.5563 2.74761C10.1764 3.22184 9.73519 3.60318 9.2499 3.93807C8.76216 4.27297 8.24011 4.54186 7.69845 4.77164C7.8406 5.09432 7.9754 5.40232 8.11756 5.70788C8.13227 5.73966 8.19109 5.77388 8.22295 5.77144C9.07588 5.6761 9.92637 5.70055 10.7768 5.80077C11.0832 5.83989 11.3871 5.88877 11.7205 5.93522ZM9.45088 10.2326C10.3822 9.82685 11.6053 7.92015 11.6469 6.81035C10.6053 6.50479 9.54647 6.44123 8.45334 6.5879C8.88226 7.78814 9.22539 8.99572 9.45088 10.2326Z" fill="black"/>
</svg>
