<svg width="13" height="12" viewBox="0 0 13 12" fill="none" xmlns="http://www.w3.org/2000/svg">
<path d="M0.566162 0V12H12.5979V0H0.566162ZM7.77393 8.55469H6.90142C6.86255 8.55469 6.84697 8.52654 6.83144 8.49042L6.33285 6.89062H4.54919L4.074 8.47228C4.0662 8.52652 4.0428 8.55469 3.9961 8.55469H3.20151C3.14702 8.55469 3.13151 8.52659 3.14702 8.46345C3.56771 7.08141 4.27648 4.77804 4.77497 3.21539C4.79838 3.12511 4.82178 3.03848 4.83727 2.72234C4.83727 2.68624 4.86067 2.67188 4.88408 2.67188H5.95906C5.99796 2.67188 6.00576 2.67645 6.02134 2.71254C6.59762 4.5642 7.22862 6.60483 7.8206 8.47453C7.8362 8.52867 7.82062 8.55469 7.77393 8.55469ZM9.58997 8.47884C9.58997 8.52413 9.57449 8.55469 9.52859 8.55469H8.73269C8.68675 8.55469 8.67349 8.53308 8.67349 8.46987V4.23361C8.67349 4.1794 8.67904 4.14844 8.71739 4.14844H9.52859C9.57449 4.14844 9.58997 4.17042 9.58997 4.23361V8.47884ZM9.12304 3.56522C8.81684 3.56522 8.61028 3.34845 8.61028 3.00518C8.61028 2.67101 8.83223 2.44521 9.13065 2.44521C9.44444 2.44521 9.63584 2.67101 9.63584 3.00518C9.63582 3.34845 9.42914 3.56522 9.12304 3.56522Z" fill="black"/>
<path d="M5.42159 3.5625C5.30468 4.14844 4.98541 5.17969 4.75171 6.02344H6.12258C5.96677 5.41406 5.58507 4.19531 5.42939 3.5625H5.42159Z" fill="black"/>
</svg>
