<svg width="17" height="12" viewBox="0 0 17 12" fill="none" xmlns="http://www.w3.org/2000/svg">
<path d="M16.4736 1.06771C16.4741 1.03622 16.466 1.00501 16.45 0.976064C16.4339 0.947124 16.4102 0.921099 16.3803 0.899664L15.305 0.069059C15.2459 0.0247684 15.1667 0 15.0844 0C15.002 0 14.9228 0.0247684 14.8637 0.069059L13.9251 0.798839C13.7534 0.708713 13.5477 0.665438 13.3405 0.675875C13.1333 0.686311 12.9366 0.749862 12.7815 0.856453L12.5515 0.678809C12.436 0.58953 12.2989 0.518704 12.148 0.470381C11.9971 0.422057 11.8353 0.397185 11.672 0.397185C11.5086 0.397185 11.3468 0.422057 11.1959 0.470381C11.045 0.518704 10.9079 0.58953 10.7924 0.678809L7.2495 3.41548L7.69082 3.75637L11.2338 1.01969C11.2915 0.974693 11.3603 0.938975 11.436 0.9146C11.5118 0.890225 11.593 0.877675 11.6751 0.877675C11.7571 0.877675 11.8384 0.890225 11.9141 0.9146C11.9898 0.938975 12.0586 0.974693 12.1164 1.01969L12.3401 1.19254L2.33912 8.87443L4.93727 10.8861L15.3485 2.87775C15.4986 2.75962 15.5902 2.60451 15.6072 2.43951C15.6243 2.27452 15.5657 2.11015 15.4418 1.97513L16.3803 1.25015C16.412 1.22671 16.4367 1.19828 16.4527 1.16679C16.4688 1.1353 16.4759 1.10151 16.4736 1.06771ZM15.0253 1.61024L14.4037 1.13012L15.1061 0.592388L15.7277 1.07251L15.0253 1.61024ZM1.91023 9.24892C1.90905 9.26171 1.90905 9.27454 1.91023 9.28733L0.977883 11.6879C0.962982 11.7291 0.962616 11.7727 0.976823 11.814C0.99103 11.8554 1.01929 11.8931 1.05869 11.9232C1.10625 11.9659 1.17277 11.9933 1.24516 12H1.33839L4.44623 11.275C4.47028 11.2673 4.4932 11.2577 4.5146 11.2462L1.91023 9.24892Z" fill="#0E1D25"/>
</svg>
