<svg width="12" height="14" viewBox="0 0 12 14" fill="none" xmlns="http://www.w3.org/2000/svg">
<path d="M11.1495 14C11.0166 14 10.8891 13.9473 10.7951 13.8535L10.0581 13.1185C9.59231 13.4094 9.03543 13.5191 8.49372 13.4266C7.95201 13.3341 7.46338 13.046 7.12106 12.6172C6.77875 12.1884 6.60669 11.6489 6.63773 11.1016C6.66876 10.5543 6.90071 10.0376 7.28933 9.65003C7.67795 9.26244 8.19603 9.0311 8.74474 9.00014C9.29345 8.96919 9.83439 9.14079 10.2643 9.48221C10.6943 9.82362 10.9832 10.311 11.0759 10.8512C11.1686 11.3915 11.0587 11.9469 10.767 12.4115L11.5039 13.1465C11.574 13.2164 11.6218 13.3055 11.6411 13.4025C11.6604 13.4995 11.6505 13.6 11.6126 13.6914C11.5746 13.7827 11.5104 13.8608 11.428 13.9157C11.3456 13.9707 11.2486 14 11.1495 14ZM8.8725 10C8.62867 10 8.39031 10.0721 8.18757 10.2073C7.98483 10.3424 7.82683 10.5344 7.73354 10.7591C7.64025 10.9838 7.61587 11.2311 7.66347 11.4696C7.71108 11.7081 7.82854 11.9272 8.00099 12.0991C8.17345 12.271 8.39315 12.3881 8.63231 12.4355C8.87147 12.4828 9.11936 12.4584 9.3446 12.3653C9.56985 12.2722 9.76235 12.1145 9.89774 11.9122C10.0331 11.71 10.1054 11.4722 10.1053 11.229C10.1049 10.9031 9.97483 10.5907 9.74372 10.3603C9.51261 10.1298 9.19928 10.0003 8.8725 10Z" fill="black"/>
<path d="M9.64551 4C9.11368 4 8.60362 3.78929 8.22756 3.41421C7.85149 3.03914 7.64022 2.53043 7.64022 2V0H3.12832C2.46352 0 1.82596 0.263392 1.35587 0.732233C0.885793 1.20107 0.621704 1.83696 0.621704 2.5V11.5C0.621704 12.163 0.885793 12.7989 1.35587 13.2678C1.82596 13.7366 2.46352 14 3.12832 14H7.21861C6.7948 13.7491 6.43407 13.405 6.16397 12.9938C5.89386 12.5827 5.72153 12.1154 5.66013 11.6277C5.59873 11.14 5.64988 10.6448 5.80968 10.1798C5.96948 9.71481 6.23371 9.2924 6.58217 8.94481C6.93064 8.59723 7.35414 8.33365 7.82033 8.17422C8.28652 8.01479 8.78308 7.96372 9.27208 8.0249C9.76109 8.08609 10.2296 8.25791 10.6419 8.52725C11.0541 8.79659 11.3992 9.15633 11.6508 9.579V4H9.64551ZM3.12832 3H6.13625C6.26921 3 6.39673 3.05268 6.49074 3.14645C6.58476 3.24021 6.63758 3.36739 6.63758 3.5C6.63758 3.63261 6.58476 3.75979 6.49074 3.85355C6.39673 3.94732 6.26921 4 6.13625 4H3.12832C2.99536 4 2.86785 3.94732 2.77383 3.85355C2.67981 3.75979 2.627 3.63261 2.627 3.5C2.627 3.36739 2.67981 3.24021 2.77383 3.14645C2.86785 3.05268 2.99536 3 3.12832 3ZM4.63229 8H3.12832C2.99536 8 2.86785 7.94732 2.77383 7.85355C2.67981 7.75979 2.627 7.63261 2.627 7.5C2.627 7.36739 2.67981 7.24021 2.77383 7.14645C2.86785 7.05268 2.99536 7 3.12832 7H4.63229C4.76525 7 4.89276 7.05268 4.98678 7.14645C5.08079 7.24021 5.13361 7.36739 5.13361 7.5C5.13361 7.63261 5.08079 7.75979 4.98678 7.85355C4.89276 7.94732 4.76525 8 4.63229 8ZM8.14155 6H3.12832C2.99536 6 2.86785 5.94732 2.77383 5.85355C2.67981 5.75979 2.627 5.63261 2.627 5.5C2.627 5.36739 2.67981 5.24021 2.77383 5.14645C2.86785 5.05268 2.99536 5 3.12832 5H8.14155C8.27451 5 8.40202 5.05268 8.49604 5.14645C8.59005 5.24021 8.64287 5.36739 8.64287 5.5C8.64287 5.63261 8.59005 5.75979 8.49604 5.85355C8.40202 5.94732 8.27451 6 8.14155 6Z" fill="black"/>
<path d="M11.5851 2.99999C11.5169 2.75632 11.3879 2.53388 11.2101 2.35349L9.29103 0.439491C9.11017 0.262134 8.88714 0.133452 8.64282 0.0654907V1.99999C8.64282 2.26521 8.74846 2.51956 8.93649 2.7071C9.12452 2.89463 9.37955 2.99999 9.64547 2.99999H11.5851Z" fill="black"/>
</svg>
