<svg width="16" height="12" viewBox="0 0 16 12" fill="none" xmlns="http://www.w3.org/2000/svg">
<path d="M15.0415 0.00145462C13.6106 0.0847578 10.7666 0.387971 9.01086 1.49047C8.8897 1.56654 8.82103 1.7018 8.82103 1.84323V11.5897C8.82103 11.8991 9.15081 12.0946 9.4289 11.951C11.2353 11.0184 13.8477 10.7639 15.1394 10.6943C15.5804 10.6704 15.9232 10.3077 15.9232 9.87301V0.823772C15.9235 0.349399 15.5224 -0.0264024 15.0415 0.00145462ZM7.79591 1.49047C6.04047 0.387971 3.19646 0.0850256 1.76557 0.00145462C1.28461 -0.0264024 0.883545 0.349399 0.883545 0.823772V9.87328C0.883545 10.3083 1.22638 10.671 1.6674 10.6945C2.95963 10.7642 5.57334 11.0189 7.3797 11.9521C7.657 12.0954 7.98574 11.9001 7.98574 11.5916V1.83841C7.98574 1.69671 7.91733 1.5668 7.79591 1.49047Z" fill="black"/>
</svg>
