<svg width="12" height="8" viewBox="0 0 12 8" fill="none" xmlns="http://www.w3.org/2000/svg">
<path d="M11.5938 1.16844L11.594 1.1682L11.5938 1.16838V0.90584C11.5938 0.407641 11.1872 0 10.6903 0L10.69 0.000243819L10.6895 0.000643064L10.6903 0H1.4697L1.47326 0.00290468L1.4697 0.000243819C0.972779 0.000243819 0.566162 0.407885 0.566162 0.906106V7.09418C0.566162 7.59238 0.972757 8 1.4697 8H1.79134H10.3412V7.99978C11.289 7.98874 11.5737 7.75361 11.5953 7.09489L11.5938 1.16844ZM10.0171 0.221737L6.06536 3.14006L2.13933 0.221737H10.0171ZM2.01479 2.48928L5.67529 5.01717L5.67896 5.01972L2.01269 7.57562L2.01479 2.48928ZM2.1094 7.77826L5.87259 5.15481L5.93861 5.20086C5.97656 5.22734 6.02075 5.2406 6.06494 5.2406C6.10878 5.2406 6.25897 5.15412 6.25897 5.15412L10.0232 7.77826H2.1094ZM10.1176 7.57404L6.45356 5.01975L8.49701 3.60857L10.1176 2.48942V7.57404Z" fill="black"/>
</svg>
