<svg width="12" height="17" viewBox="0 0 12 17" fill="none" xmlns="http://www.w3.org/2000/svg">
<path d="M6.08071 8.5C6.08071 7.74855 6.37121 7.02788 6.8883 6.49653C7.40539 5.96518 8.10671 5.66667 8.83799 5.66667C9.56926 5.66667 10.2706 5.96518 10.7877 6.49653C11.3048 7.02788 11.5953 7.74855 11.5953 8.5C11.5953 9.25145 11.3048 9.97212 10.7877 10.5035C10.2706 11.0348 9.56926 11.3333 8.83799 11.3333C8.10671 11.3333 7.40539 11.0348 6.8883 10.5035C6.37121 9.97212 6.08071 9.25145 6.08071 8.5ZM0.566162 14.1667C0.566162 13.4152 0.85666 12.6946 1.37375 12.1632C1.89084 11.6318 2.59216 11.3333 3.32344 11.3333H6.08071V14.1667C6.08071 14.9181 5.79022 15.6388 5.27313 16.1701C4.75604 16.7015 4.05471 17 3.32344 17C2.59216 17 1.89084 16.7015 1.37375 16.1701C0.85666 15.6388 0.566162 14.9181 0.566162 14.1667ZM6.08071 0V5.66667H8.83799C9.56926 5.66667 10.2706 5.36816 10.7877 4.8368C11.3048 4.30545 11.5953 3.58478 11.5953 2.83333C11.5953 2.08189 11.3048 1.36122 10.7877 0.829864C10.2706 0.298511 9.56926 0 8.83799 0L6.08071 0ZM0.566162 2.83333C0.566162 3.58478 0.85666 4.30545 1.37375 4.8368C1.89084 5.36816 2.59216 5.66667 3.32344 5.66667H6.08071V0H3.32344C2.59216 0 1.89084 0.298511 1.37375 0.829864C0.85666 1.36122 0.566162 2.08189 0.566162 2.83333ZM0.566162 8.5C0.566162 9.25145 0.85666 9.97212 1.37375 10.5035C1.89084 11.0348 2.59216 11.3333 3.32344 11.3333H6.08071V5.66667H3.32344C2.59216 5.66667 1.89084 5.96518 1.37375 6.49653C0.85666 7.02788 0.566162 7.74855 0.566162 8.5Z" fill="black"/>
</svg>
