<svg width="12" height="11" viewBox="0 0 12 11" fill="none" xmlns="http://www.w3.org/2000/svg">
<path d="M2.7873 4.76361C3.66963 6.49306 5.08809 7.90778 6.82518 8.78778L8.17318 7.44028C8.34168 7.27222 8.58371 7.22333 8.7951 7.29056C9.48135 7.51667 10.2197 7.63889 10.9825 7.63889C11.3226 7.63889 11.5953 7.91083 11.5953 8.25V10.3889C11.5953 10.7281 11.3226 11 10.9825 11C5.22902 11 0.566162 6.34944 0.566162 0.611111C0.566162 0.271944 0.84189 0 1.17889 0H3.32344C3.6635 0 3.93617 0.271944 3.93617 0.611111C3.93617 1.37194 4.05871 2.10833 4.28542 2.79278C4.35282 3.00361 4.3038 3.245 4.1353 3.41306L2.7873 4.76361Z" fill="black"/>
</svg>
