<svg width="13" height="12" viewBox="0 0 13 12" fill="none" xmlns="http://www.w3.org/2000/svg">
<path d="M8.15735 6.75514C8.15735 8.09586 9.00996 8.21729 9.28626 8.21729C9.56262 8.21729 9.68397 8.16591 9.68397 8.16591V5.37244C9.68397 5.37244 9.6048 5.30701 9.37053 5.30701C9.13641 5.30701 8.15735 5.41451 8.15735 6.75514Z" fill="black"/>
<path d="M0.566162 0V12H12.5979V0H0.566162ZM5.77734 9L4.64072 6.65384L3.51716 9H2.47042L4.02303 5.94073L2.52393 2.95312H3.58322L4.70182 5.25565L5.80556 2.95312H6.83383L5.31003 5.9048L6.91032 9H5.77734ZM10.6944 8.69679C10.6944 8.69679 10.2121 9.04978 9.18893 9.04978C7.79938 9.04978 7.14678 8.07841 7.14678 6.79423C7.14678 5.13309 8.36901 4.47656 9.38015 4.47656C9.49861 4.47656 9.68399 4.47656 9.68399 4.47656V2.95312H10.6945V8.69679H10.6944Z" fill="black"/>
</svg>
